<svg xmlns="http://www.w3.org/2000/svg" xmlns:xlink="http://www.w3.org/1999/xlink" version="1.1" viewBox="0 0 2350 794" style="background: #ffffff"><defs joint-selector="defs"></defs><g joint-selector="layers"  transform="matrix(1,0,0,1,0,0)"><g ></g><g ><g   id="j_173"  transform="translate(20,749)"><g id="v-1666"><text  id="v-1667" font-size="22px" xml:space="preserve" y="0.8em" font-weight="normal" text-anchor="start" fill="#aaaaaa" pointer-events="none" font-family="Open Sans"><tspan dy="0" >Thursday, September 21, 2023 at 1:18 PM Central European Summer Time</tspan></text></g></g><g   id="j_172"  transform="translate(20,705)"><g id="v-1664"><text  id="v-1665" font-size="36px" xml:space="preserve" y="0.8em" font-weight="normal" text-anchor="start" fill="#000000" pointer-events="none" font-family="Open Sans"><tspan dy="0" >[System Context] Cornifer</tspan></text></g></g><g   id="j_167"  transform="translate(929,199)" style=""><g id="v-1605"><rect  id="v-1606" width="490" height="394" rx="0" ry="0" fill="#ffffff" stroke="#444444" stroke-width="1" stroke-dasharray="5,5" pointer-events="none"></rect><text  id="v-1607" font-size="24px" xml:space="preserve" y="379" font-weight="normal" fill="#444444" text-anchor="start" pointer-events="visible" font-family="Open Sans" transform="matrix(1,0,0,1,15,0)"><tspan dy="0" >DAEDALUS</tspan></text><text  id="v-1608" font-size="17px" xml:space="preserve" display="none" y="379" font-weight="normal" fill="#444444" text-anchor="start" pointer-events="visible" font-family="Open Sans" transform="matrix(1,0,0,1,15,0)"><tspan dy="0" style="fill-opacity: 0; stroke-opacity: 0;" >-</tspan></text><image  id="v-1609" pointer-events="visible"></image></g></g><g   id="j_166"  transform="translate(949,219)" style=""><g  id="v-1598" style="opacity: 1;"><rect  id="v-1599" rx="1" ry="1" stroke="#0c7cba" stroke-width="8" pointer-events="visiblePainted" fill="#cfe4ff" width="450" height="300" style="fill: rgb(207, 228, 255); stroke: rgb(12, 124, 186);"></rect><text  id="v-1600" font-size="34" xml:space="preserve" y="0.8em" font-weight="bold" text-anchor="middle" pointer-events="visible" font-family="Open Sans" fill="#000000" transform="matrix(1,0,0,1,225,98.1)" style="fill: rgb(0, 0, 0);"><tspan dy="0" >Cornifer</tspan></text><text  id="v-1601" font-size="17" xml:space="preserve" y="0.8em" text-anchor="middle" font-family="Open Sans" fill="#000000" transform="matrix(1,0,0,1,225,140.6)" style="fill: rgb(0, 0, 0);"><tspan dy="0" >[Software System]</tspan></text><text  id="v-1602" font-size="24" xml:space="preserve" y="0.8em" text-anchor="middle" font-family="Open Sans" fill="#000000" transform="matrix(1,0,0,1,225,171.9)" style="fill: rgb(0, 0, 0);"><tspan dy="0" >C4 unleashed. Period.</tspan></text><g  id="v-1603" color="#000000" transform="matrix(1,0,0,1,210,211.9)" display="none" style="fill: rgb(0, 0, 0);"><g  transform="translate(5 0)"><svg xmlns="http://www.w3.org/2000/svg" width="20" height="20" fill="currentColor" viewBox="0 0 16 16"><path fill-rule="evenodd" d="M6.5 12a5.5 5.5 0 1 0 0-11 5.5 5.5 0 0 0 0 11zM13 6.5a6.5 6.5 0 1 1-13 0 6.5 6.5 0 0 1 13 0z"></path><path d="M10.344 11.742c.03.04.062.078.098.115l3.85 3.85a1 1 0 0 0 1.415-1.414l-3.85-3.85a1.007 1.007 0 0 0-.115-.1 6.538 6.538 0 0 1-1.398 1.4z"></path><path fill-rule="evenodd" d="M6.5 3a.5.5 0 0 1 .5.5V6h2.5a.5.5 0 0 1 0 1H7v2.5a.5.5 0 0 1-1 0V7H3.5a.5.5 0 0 1 0-1H6V3.5a.5.5 0 0 1 .5-.5z"></path></svg></g><g ></g><g ></g><g ></g></g><image  id="v-1604"></image></g></g><g   id="j_168"  transform="translate(1699,219)" style=""><g  id="v-1610" style="opacity: 1;"><rect  id="v-1611" rx="1" ry="1" stroke="#666666" stroke-width="8" pointer-events="visiblePainted" fill="#f5f5f5" width="450" height="300" style="fill: rgb(245, 245, 245); stroke: rgb(102, 102, 102);"></rect><text  id="v-1612" font-size="34" xml:space="preserve" y="0.8em" font-weight="bold" text-anchor="middle" pointer-events="visible" font-family="Open Sans" fill="#000000" transform="matrix(1,0,0,1,225,98.1)" style="fill: rgb(0, 0, 0);"><tspan dy="0" >Structurizr</tspan></text><text  id="v-1613" font-size="17" xml:space="preserve" y="0.8em" text-anchor="middle" font-family="Open Sans" fill="#000000" transform="matrix(1,0,0,1,225,140.6)" style="fill: rgb(0, 0, 0);"><tspan dy="0" >[Software System]</tspan></text><text  id="v-1614" font-size="24" xml:space="preserve" y="0.8em" text-anchor="middle" font-family="Open Sans" fill="#000000" transform="matrix(1,0,0,1,225,171.9)" style="fill: rgb(0, 0, 0);"><tspan dy="0" >Diagrams as code 2.0.</tspan></text><g  id="v-1615" color="#000000" transform="matrix(1,0,0,1,210,211.9)" display="none" style="fill: rgb(0, 0, 0);"><g ></g><g ></g><g ></g><g  transform="translate(5 0)"><svg xmlns="http://www.w3.org/2000/svg" width="20" height="20" fill="currentColor" viewBox="0 0 16 16"><path d="M6.354 5.5H4a3 3 0 0 0 0 6h3a3 3 0 0 0 2.83-4H9c-.086 0-.17.01-.25.031A2 2 0 0 1 7 10.5H4a2 2 0 1 1 0-4h1.535c.218-.376.495-.714.82-1z"></path><path d="M9 5.5a3 3 0 0 0-2.83 4h1.098A2 2 0 0 1 9 6.5h3a2 2 0 1 1 0 4h-1.535a4.02 4.02 0 0 1-.82 1H12a3 3 0 1 0 0-6H9z"></path></svg></g></g><image  id="v-1616"></image></g></g><g   id="j_169"  transform="translate(199,219)" style=""><g  id="v-1620" style="opacity: 1;"><rect  id="v-1621" rx="1" ry="1" stroke="#666666" stroke-width="8" pointer-events="visiblePainted" fill="#f5f5f5" width="450" height="300" style="fill: rgb(245, 245, 245); stroke: rgb(102, 102, 102);"></rect><text  id="v-1622" font-size="34" xml:space="preserve" y="0.8em" font-weight="bold" text-anchor="middle" pointer-events="visible" font-family="Open Sans" fill="#000000" transform="matrix(1,0,0,1,225,98.1)" style="fill: rgb(0, 0, 0);"><tspan dy="0" >VS Code</tspan></text><text  id="v-1623" font-size="17" xml:space="preserve" y="0.8em" text-anchor="middle" font-family="Open Sans" fill="#000000" transform="matrix(1,0,0,1,225,140.6)" style="fill: rgb(0, 0, 0);"><tspan dy="0" >[Software System]</tspan></text><text  id="v-1624" font-size="24" xml:space="preserve" y="0.8em" text-anchor="middle" font-family="Open Sans" fill="#000000" transform="matrix(1,0,0,1,225,171.9)" style="fill: rgb(0, 0, 0);"><tspan dy="0" >Code editing.Redefined.</tspan></text><g  id="v-1625" color="#000000" transform="matrix(1,0,0,1,210,211.9)" display="none" style="fill: rgb(0, 0, 0);"><g ></g><g ></g><g ></g><g  transform="translate(5 0)"><svg xmlns="http://www.w3.org/2000/svg" width="20" height="20" fill="currentColor" viewBox="0 0 16 16"><path d="M6.354 5.5H4a3 3 0 0 0 0 6h3a3 3 0 0 0 2.83-4H9c-.086 0-.17.01-.25.031A2 2 0 0 1 7 10.5H4a2 2 0 1 1 0-4h1.535c.218-.376.495-.714.82-1z"></path><path d="M9 5.5a3 3 0 0 0-2.83 4h1.098A2 2 0 0 1 9 6.5h3a2 2 0 1 1 0 4h-1.535a4.02 4.02 0 0 1-.82 1H12a3 3 0 1 0 0-6H9z"></path></svg></g></g><image  id="v-1626"></image></g></g><g   id="j_170" ><path  stroke="#707070" d="M 1399 369 L 1699 369" id="v-1639" stroke-width="2" stroke-dasharray="30 30" fill="none" style="opacity: 1;"></path><path  fill="black" stroke="black" d="M 0 0 0 0" transform="matrix(1,0,0,1,1399,369)"></path><path  fill="#707070" stroke="#707070" d="M 20 0 L 0 10 L 20 20 z" id="v-1641" transform="matrix(-1,1.2246467991473532e-16,-1.2246467991473532e-16,-1,1699,379)" style="opacity: 1;"></path><path  d="M 1399 369 L 1699 369" id="v-1640" fill="none" style="cursor: auto; pointer-events: visiblepainted;"></path><g ><g id="v-1630"  label-idx="0" cursor="move" transform="matrix(1,0,0,1,1549,369)" style="cursor: default; opacity: 1;"><rect joint-selector="rect" id="v-1634" fill="#ffffff" rx="3" ry="3" pointer-events="none" width="58.6429328918457" height="32.59124565124512" transform="matrix(1,0,0,1,-29,-16.3)"></rect><text joint-selector="text" id="v-1633" font-size="24px" xml:space="preserve" y="0.8em" fill="#707070" text-anchor="middle" pointer-events="none" font-family="Open Sans" font-weight="normal" transform="matrix(1,0,0,1,0,-9.8)"><tspan dy="0" >Fuels</tspan></text></g><g id="v-1631"  label-idx="1" cursor="move" transform="matrix(1,0,0,1,1549,396)" style="cursor: default; opacity: 1;"><rect joint-selector="rect" id="v-1636" fill="#ffffff" rx="3" ry="3" pointer-events="none" width="168.58465576171875" height="24.01460361480713" transform="matrix(1,0,0,1,-84.3,-12)"></rect><text joint-selector="text" id="v-1635" font-size="17px" xml:space="preserve" y="0.8em" fill="#707070" text-anchor="middle" pointer-events="none" font-family="Open Sans" font-weight="normal" transform="matrix(1,0,0,1,0,-6.7)"><tspan dy="0" >[workspace &amp; theme]</tspan></text></g><g id="v-1632"  label-idx="2" cursor="move" transform="matrix(1,0,0,1,1539,405.25)" style="cursor: default; opacity: 1;"><rect joint-selector="rect" id="v-1638" fill="#ffffff" rx="3" ry="3"  width="0" height="0" transform="matrix(1,0,0,1,0,0)" display="none"></rect><text joint-selector="text" id="v-1637" fill="#000000" font-size="14" text-anchor="middle" pointer-events="none"></text></g></g><g  display="none" style="display: none;"></g><g  id="v-1643" display="none"><g  id="v-1628"><path  end="source" d="M 26 0 L 0 13 L 26 26 z"></path></g><g  id="v-1629"><path  end="target" d="M 26 0 L 0 13 L 26 26 z"></path></g></g><g  id="v-1642" display="none"><g  id="v-1627" transform="translate(1439, 369) "><g  event="remove"><circle r="11"></circle><path transform="scale(.8) translate(-16, -16)" d="M24.778,21.419 19.276,15.917 24.777,10.415 21.949,7.585 16.447,13.087 10.945,7.585 8.117,10.415 13.618,15.917 8.116,21.419 10.946,24.248 16.447,18.746 21.948,24.248z"></path><title>Remove link.</title></g><g  event="link:options"><circle r="11" transform="translate(25)"></circle><path fill="white" transform="scale(.55) translate(29, -16)" d="M31.229,17.736c0.064-0.571,0.104-1.148,0.104-1.736s-0.04-1.166-0.104-1.737l-4.377-1.557c-0.218-0.716-0.504-1.401-0.851-2.05l1.993-4.192c-0.725-0.91-1.549-1.734-2.458-2.459l-4.193,1.994c-0.647-0.347-1.334-0.632-2.049-0.849l-1.558-4.378C17.165,0.708,16.588,0.667,16,0.667s-1.166,0.041-1.737,0.105L12.707,5.15c-0.716,0.217-1.401,0.502-2.05,0.849L6.464,4.005C5.554,4.73,4.73,5.554,4.005,6.464l1.994,4.192c-0.347,0.648-0.632,1.334-0.849,2.05l-4.378,1.557C0.708,14.834,0.667,15.412,0.667,16s0.041,1.165,0.105,1.736l4.378,1.558c0.217,0.715,0.502,1.401,0.849,2.049l-1.994,4.193c0.725,0.909,1.549,1.733,2.459,2.458l4.192-1.993c0.648,0.347,1.334,0.633,2.05,0.851l1.557,4.377c0.571,0.064,1.148,0.104,1.737,0.104c0.588,0,1.165-0.04,1.736-0.104l1.558-4.377c0.715-0.218,1.399-0.504,2.049-0.851l4.193,1.993c0.909-0.725,1.733-1.549,2.458-2.458l-1.993-4.193c0.347-0.647,0.633-1.334,0.851-2.049L31.229,17.736zM16,20.871c-2.69,0-4.872-2.182-4.872-4.871c0-2.69,2.182-4.872,4.872-4.872c2.689,0,4.871,2.182,4.871,4.872C20.871,18.689,18.689,20.871,16,20.871z"></path><title>Link options.</title></g></g></g></g><g   id="j_171" ><path  stroke="#707070" d="M 649 369 L 949 369" id="v-1656" stroke-width="2" stroke-dasharray="30 30" fill="none" style="opacity: 1;"></path><path  fill="black" stroke="black" d="M 0 0 0 0" transform="matrix(1,0,0,1,649,369)"></path><path  fill="#707070" stroke="#707070" d="M 20 0 L 0 10 L 20 20 z" id="v-1658" transform="matrix(-1,1.2246467991473532e-16,-1.2246467991473532e-16,-1,949,379)" style="opacity: 1;"></path><path  d="M 649 369 L 949 369" id="v-1657" fill="none" style="cursor: auto; pointer-events: visiblepainted;"></path><g ><g id="v-1647"  label-idx="0" cursor="move" transform="matrix(1,0,0,1,799,369)" style="cursor: default; opacity: 1;"><rect joint-selector="rect" id="v-1651" fill="#ffffff" rx="3" ry="3" pointer-events="none" width="113.11758422851562" height="32.59124565124512" transform="matrix(1,0,0,1,-56.3,-16.3)"></rect><text joint-selector="text" id="v-1650" font-size="24px" xml:space="preserve" y="0.8em" fill="#707070" text-anchor="middle" pointer-events="none" font-family="Open Sans" font-weight="normal" transform="matrix(1,0,0,1,0,-9.8)"><tspan dy="0" >Leverages</tspan></text></g><g id="v-1648"  label-idx="1" cursor="move" transform="matrix(1,0,0,1,799,396)" style="cursor: default; opacity: 1;"><rect joint-selector="rect" id="v-1653" fill="#ffffff" rx="3" ry="3" pointer-events="none" width="98.52420043945312" height="24.01460361480713" transform="matrix(1,0,0,1,-49.3,-12)"></rect><text joint-selector="text" id="v-1652" font-size="17px" xml:space="preserve" y="0.8em" fill="#707070" text-anchor="middle" pointer-events="none" font-family="Open Sans" font-weight="normal" transform="matrix(1,0,0,1,0,-6.7)"><tspan dy="0" >[C4 support]</tspan></text></g><g id="v-1649"  label-idx="2" cursor="move" transform="matrix(1,0,0,1,789,405.25)" style="cursor: default; opacity: 1;"><rect joint-selector="rect" id="v-1655" fill="#ffffff" rx="3" ry="3"  width="0" height="0" transform="matrix(1,0,0,1,0,0)" display="none"></rect><text joint-selector="text" id="v-1654" fill="#000000" font-size="14" text-anchor="middle" pointer-events="none"></text></g></g><g  display="none" style="display: none;"></g><g  id="v-1660" display="none"><g  id="v-1645"><path  end="source" d="M 26 0 L 0 13 L 26 26 z"></path></g><g  id="v-1646"><path  end="target" d="M 26 0 L 0 13 L 26 26 z"></path></g></g><g  id="v-1659" display="none"><g  id="v-1644" transform="translate(689, 369) "><g  event="remove"><circle r="11"></circle><path transform="scale(.8) translate(-16, -16)" d="M24.778,21.419 19.276,15.917 24.777,10.415 21.949,7.585 16.447,13.087 10.945,7.585 8.117,10.415 13.618,15.917 8.116,21.419 10.946,24.248 16.447,18.746 21.948,24.248z"></path><title>Remove link.</title></g><g  event="link:options"><circle r="11" transform="translate(25)"></circle><path fill="white" transform="scale(.55) translate(29, -16)" d="M31.229,17.736c0.064-0.571,0.104-1.148,0.104-1.736s-0.04-1.166-0.104-1.737l-4.377-1.557c-0.218-0.716-0.504-1.401-0.851-2.05l1.993-4.192c-0.725-0.91-1.549-1.734-2.458-2.459l-4.193,1.994c-0.647-0.347-1.334-0.632-2.049-0.849l-1.558-4.378C17.165,0.708,16.588,0.667,16,0.667s-1.166,0.041-1.737,0.105L12.707,5.15c-0.716,0.217-1.401,0.502-2.05,0.849L6.464,4.005C5.554,4.73,4.73,5.554,4.005,6.464l1.994,4.192c-0.347,0.648-0.632,1.334-0.849,2.05l-4.378,1.557C0.708,14.834,0.667,15.412,0.667,16s0.041,1.165,0.105,1.736l4.378,1.558c0.217,0.715,0.502,1.401,0.849,2.049l-1.994,4.193c0.725,0.909,1.549,1.733,2.459,2.458l4.192-1.993c0.648,0.347,1.334,0.633,2.05,0.851l1.557,4.377c0.571,0.064,1.148,0.104,1.737,0.104c0.588,0,1.165-0.04,1.736-0.104l1.558-4.377c0.715-0.218,1.399-0.504,2.049-0.851l4.193,1.993c0.909-0.725,1.733-1.549,2.458-2.458l-1.993-4.193c0.347-0.647,0.633-1.334,0.851-2.049L31.229,17.736zM16,20.871c-2.69,0-4.872-2.182-4.872-4.871c0-2.69,2.182-4.872,4.872-4.872c2.689,0,4.871,2.182,4.871,4.872C20.871,18.689,18.689,20.871,16,20.871z"></path><title>Link options.</title></g></g></g></g></g><g ></g><g ></g><g ></g></g></svg>