<svg xmlns="http://www.w3.org/2000/svg" xmlns:xlink="http://www.w3.org/1999/xlink" version="1.1" viewBox="0 0 2975 1861" style="background: #ffffff"><defs joint-selector="defs"></defs><g joint-selector="layers"  transform="matrix(1,0,0,1,0,0)"><g ></g><g ><g   id="j_17"  transform="translate(20,1816)"><g id="v-184"><text  id="v-185" font-size="22px" xml:space="preserve" y="0.8em" font-weight="normal" text-anchor="start" fill="#aaaaaa" pointer-events="none" font-family="Open Sans" display="block"><tspan dy="0" >Thursday, September 21, 2023 at 1:29 PM Central European Summer Time</tspan></text></g></g><g   id="j_16"  transform="translate(20,1772)"><g id="v-182"><text  id="v-183" font-size="36px" xml:space="preserve" y="0.8em" font-weight="normal" text-anchor="start" fill="#000000" pointer-events="none" font-family="Open Sans" display="block"><tspan dy="0" >[Component] Cornifer - Cornifer</tspan></text></g></g><g   id="j_5"  transform="translate(2325,1269)" style=""><g  id="v-38" style="opacity: 1;"><rect  id="v-39" rx="1" ry="1" stroke="#666666" stroke-width="8" pointer-events="visiblePainted" fill="#f5f5f5" width="450" height="300" style="fill: rgb(245, 245, 245); stroke: rgb(102, 102, 102);"></rect><text  id="v-40" font-size="34" xml:space="preserve" y="0.8em" font-weight="bold" text-anchor="middle" pointer-events="visible" font-family="Open Sans" fill="#000000" transform="matrix(1,0,0,1,225,98.1)" style="fill: rgb(0, 0, 0);"><tspan dy="0" >Structurizr</tspan></text><text  id="v-41" font-size="17" xml:space="preserve" y="0.8em" text-anchor="middle" font-family="Open Sans" fill="#000000" transform="matrix(1,0,0,1,225,140.6)" style="fill: rgb(0, 0, 0);"><tspan dy="0" >[Software System]</tspan></text><text  id="v-42" font-size="24" xml:space="preserve" y="0.8em" text-anchor="middle" font-family="Open Sans" fill="#000000" transform="matrix(1,0,0,1,225,171.9)" style="fill: rgb(0, 0, 0);"><tspan dy="0" >Diagrams as code 2.0.</tspan></text><g  id="v-43" color="#000000" transform="matrix(1,0,0,1,210,211.9)" display="none" style="fill: rgb(0, 0, 0);"><g ></g><g ></g><g ></g><g  transform="translate(5 0)"><svg xmlns="http://www.w3.org/2000/svg" width="20" height="20" fill="currentColor" viewBox="0 0 16 16"><path d="M6.354 5.5H4a3 3 0 0 0 0 6h3a3 3 0 0 0 2.83-4H9c-.086 0-.17.01-.25.031A2 2 0 0 1 7 10.5H4a2 2 0 1 1 0-4h1.535c.218-.376.495-.714.82-1z"></path><path d="M9 5.5a3 3 0 0 0-2.83 4h1.098A2 2 0 0 1 9 6.5h3a2 2 0 1 1 0 4h-1.535a4.02 4.02 0 0 1-.82 1H12a3 3 0 1 0 0-6H9z"></path></svg></g></g><image  id="v-44"></image></g></g><g   id="j_2"  transform="translate(200,199)" style=""><g id="v-13"><rect  id="v-14" width="1896" height="1461" rx="0" ry="0" fill="#ffffff" stroke="#c92d39" stroke-width="1" stroke-dasharray="20,20" pointer-events="none"></rect><text  id="v-15" font-size="24px" xml:space="preserve" y="1422" font-weight="normal" fill="#c92d39" text-anchor="start" pointer-events="visible" font-family="Open Sans" transform="matrix(1,0,0,1,15,0)"><tspan dy="0" >Cornifer</tspan></text><text  id="v-16" font-size="17px" xml:space="preserve" y="1446" font-weight="normal" fill="#c92d39" text-anchor="start" pointer-events="visible" font-family="Open Sans" transform="matrix(1,0,0,1,15,0)"><tspan dy="0" >[Container]</tspan></text><image  id="v-17" pointer-events="visible"></image></g></g><g   id="j_1"  transform="translate(1626,219)" style=""><g  id="v-6" style="opacity: 1;"><rect  id="v-7" rx="1" ry="1" stroke="#7ab648" stroke-width="8" pointer-events="visiblePainted" fill="#c3f7c8" width="450" height="300" style="fill: rgb(195, 247, 200); stroke: rgb(122, 182, 72);"></rect><text  id="v-8" font-size="34" xml:space="preserve" y="0.8em" font-weight="bold" text-anchor="middle" pointer-events="visible" font-family="Open Sans" fill="#000000" transform="matrix(1,0,0,1,225,98.1)" style="fill: rgb(0, 0, 0);"><tspan dy="0" >Symbols</tspan></text><text  id="v-9" font-size="17" xml:space="preserve" y="0.8em" text-anchor="middle" font-family="Open Sans" fill="#000000" transform="matrix(1,0,0,1,225,140.6)" style="fill: rgb(0, 0, 0);"><tspan dy="0" >[Component: ts]</tspan></text><text  id="v-10" font-size="24" xml:space="preserve" y="0.8em" text-anchor="middle" font-family="Open Sans" fill="#000000" transform="matrix(1,0,0,1,225,171.9)" style="fill: rgb(0, 0, 0);"><tspan dy="0" >Sketches outline &amp; breadcrumbs</tspan></text><g  id="v-11" color="#000000" transform="matrix(1,0,0,1,210,211.9)" display="none" style="fill: rgb(0, 0, 0);"><g ></g><g ></g><g ></g><g  transform="translate(5 0)"><svg xmlns="http://www.w3.org/2000/svg" width="20" height="20" fill="currentColor" viewBox="0 0 16 16"><path d="M6.354 5.5H4a3 3 0 0 0 0 6h3a3 3 0 0 0 2.83-4H9c-.086 0-.17.01-.25.031A2 2 0 0 1 7 10.5H4a2 2 0 1 1 0-4h1.535c.218-.376.495-.714.82-1z"></path><path d="M9 5.5a3 3 0 0 0-2.83 4h1.098A2 2 0 0 1 9 6.5h3a2 2 0 1 1 0 4h-1.535a4.02 4.02 0 0 1-.82 1H12a3 3 0 1 0 0-6H9z"></path></svg></g></g><image  id="v-12"></image></g></g><g   id="j_3"  transform="translate(220,219)" style=""><g  id="v-21" style="opacity: 1;"><rect  id="v-22" rx="1" ry="1" stroke="#7ab648" stroke-width="8" pointer-events="visiblePainted" fill="#c3f7c8" width="450" height="300" style="fill: rgb(195, 247, 200); stroke: rgb(122, 182, 72);"></rect><text  id="v-23" font-size="34" xml:space="preserve" y="0.8em" font-weight="bold" text-anchor="middle" pointer-events="visible" font-family="Open Sans" fill="#000000" transform="matrix(1,0,0,1,225,83.1)" style="fill: rgb(0, 0, 0);"><tspan dy="0" >Transpiler</tspan></text><text  id="v-24" font-size="17" xml:space="preserve" y="0.8em" text-anchor="middle" font-family="Open Sans" fill="#000000" transform="matrix(1,0,0,1,225,125.6)" style="fill: rgb(0, 0, 0);"><tspan dy="0" >[Component: ts]</tspan></text><text  id="v-25" font-size="24" xml:space="preserve" y="0.8em" text-anchor="middle" font-family="Open Sans" fill="#000000" transform="matrix(1,0,0,1,225,156.9)" style="fill: rgb(0, 0, 0);"><tspan dy="0" >Transpiles docker compose yaml</tspan><tspan dy="1.2em" x="0" >into matching dsl.</tspan></text><g  id="v-26" color="#000000" transform="matrix(1,0,0,1,210,226.9)" display="none" style="fill: rgb(0, 0, 0);"><g ></g><g ></g><g ></g><g  transform="translate(5 0)"><svg xmlns="http://www.w3.org/2000/svg" width="20" height="20" fill="currentColor" viewBox="0 0 16 16"><path d="M6.354 5.5H4a3 3 0 0 0 0 6h3a3 3 0 0 0 2.83-4H9c-.086 0-.17.01-.25.031A2 2 0 0 1 7 10.5H4a2 2 0 1 1 0-4h1.535c.218-.376.495-.714.82-1z"></path><path d="M9 5.5a3 3 0 0 0-2.83 4h1.098A2 2 0 0 1 9 6.5h3a2 2 0 1 1 0 4h-1.535a4.02 4.02 0 0 1-.82 1H12a3 3 0 1 0 0-6H9z"></path></svg></g></g><image  id="v-27"></image></g></g><g   id="j_4"  transform="translate(909,744)" style=""><g  id="v-31" style="opacity: 1;"><rect  id="v-32" rx="1" ry="1" stroke="#7ab648" stroke-width="8" pointer-events="visiblePainted" fill="#c3f7c8" width="450" height="300" style="fill: rgb(195, 247, 200); stroke: rgb(122, 182, 72);"></rect><text  id="v-33" font-size="34" xml:space="preserve" y="0.8em" font-weight="bold" text-anchor="middle" pointer-events="visible" font-family="Open Sans" fill="#000000" transform="matrix(1,0,0,1,225,98.1)" style="fill: rgb(0, 0, 0);"><tspan dy="0" >Grammar</tspan></text><text  id="v-34" font-size="17" xml:space="preserve" y="0.8em" text-anchor="middle" font-family="Open Sans" fill="#000000" transform="matrix(1,0,0,1,225,140.6)" style="fill: rgb(0, 0, 0);"><tspan dy="0" >[Component: TextMate|JSON]</tspan></text><text  id="v-35" font-size="24" xml:space="preserve" y="0.8em" text-anchor="middle" font-family="Open Sans" fill="#000000" transform="matrix(1,0,0,1,225,171.9)" style="fill: rgb(0, 0, 0);"><tspan dy="0" >Handles tokenization &amp; theming</tspan></text><g  id="v-36" color="#000000" transform="matrix(1,0,0,1,210,211.9)" display="none" style="fill: rgb(0, 0, 0);"><g ></g><g ></g><g ></g><g  transform="translate(5 0)"><svg xmlns="http://www.w3.org/2000/svg" width="20" height="20" fill="currentColor" viewBox="0 0 16 16"><path d="M6.354 5.5H4a3 3 0 0 0 0 6h3a3 3 0 0 0 2.83-4H9c-.086 0-.17.01-.25.031A2 2 0 0 1 7 10.5H4a2 2 0 1 1 0-4h1.535c.218-.376.495-.714.82-1z"></path><path d="M9 5.5a3 3 0 0 0-2.83 4h1.098A2 2 0 0 1 9 6.5h3a2 2 0 1 1 0 4h-1.535a4.02 4.02 0 0 1-.82 1H12a3 3 0 1 0 0-6H9z"></path></svg></g></g><image  id="v-37"></image></g></g><g   id="j_6"  transform="translate(1626,919)" style=""><g  id="v-48" style="opacity: 1;"><rect  id="v-49" rx="1" ry="1" stroke="#7ab648" stroke-width="8" pointer-events="visiblePainted" fill="#c3f7c8" width="450" height="300" style="fill: rgb(195, 247, 200); stroke: rgb(122, 182, 72);"></rect><text  id="v-50" font-size="34" xml:space="preserve" y="0.8em" font-weight="bold" text-anchor="middle" pointer-events="visible" font-family="Open Sans" fill="#000000" transform="matrix(1,0,0,1,225,98.1)" style="fill: rgb(0, 0, 0);"><tspan dy="0" >Snippets</tspan></text><text  id="v-51" font-size="17" xml:space="preserve" y="0.8em" text-anchor="middle" font-family="Open Sans" fill="#000000" transform="matrix(1,0,0,1,225,140.6)" style="fill: rgb(0, 0, 0);"><tspan dy="0" >[Component: ts]</tspan></text><text  id="v-52" font-size="24" xml:space="preserve" y="0.8em" text-anchor="middle" font-family="Open Sans" fill="#000000" transform="matrix(1,0,0,1,225,171.9)" style="fill: rgb(0, 0, 0);"><tspan dy="0" >Provides templated snippets.</tspan></text><g  id="v-53" color="#000000" transform="matrix(1,0,0,1,210,211.9)" display="none" style="fill: rgb(0, 0, 0);"><g ></g><g ></g><g ></g><g  transform="translate(5 0)"><svg xmlns="http://www.w3.org/2000/svg" width="20" height="20" fill="currentColor" viewBox="0 0 16 16"><path d="M6.354 5.5H4a3 3 0 0 0 0 6h3a3 3 0 0 0 2.83-4H9c-.086 0-.17.01-.25.031A2 2 0 0 1 7 10.5H4a2 2 0 1 1 0-4h1.535c.218-.376.495-.714.82-1z"></path><path d="M9 5.5a3 3 0 0 0-2.83 4h1.098A2 2 0 0 1 9 6.5h3a2 2 0 1 1 0 4h-1.535a4.02 4.02 0 0 1-.82 1H12a3 3 0 1 0 0-6H9z"></path></svg></g></g><image  id="v-54"></image></g></g><g   id="j_7"  transform="translate(909,219)" style=""><g  id="v-58" style="opacity: 1;"><rect  id="v-59" rx="1" ry="1" stroke="#7ab648" stroke-width="8" pointer-events="visiblePainted" fill="#c3f7c8" width="450" height="300" style="fill: rgb(195, 247, 200); stroke: rgb(122, 182, 72);"></rect><text  id="v-60" font-size="34" xml:space="preserve" y="0.8em" font-weight="bold" text-anchor="middle" pointer-events="visible" font-family="Open Sans" fill="#000000" transform="matrix(1,0,0,1,225,83.1)" style="fill: rgb(0, 0, 0);"><tspan dy="0" >Hover</tspan></text><text  id="v-61" font-size="17" xml:space="preserve" y="0.8em" text-anchor="middle" font-family="Open Sans" fill="#000000" transform="matrix(1,0,0,1,225,125.6)" style="fill: rgb(0, 0, 0);"><tspan dy="0" >[Component: ts|markdown]</tspan></text><text  id="v-62" font-size="24" xml:space="preserve" y="0.8em" text-anchor="middle" font-family="Open Sans" fill="#000000" transform="matrix(1,0,0,1,225,156.9)" style="fill: rgb(0, 0, 0);"><tspan dy="0" >Provides contextual hover over dsl</tspan><tspan dy="1.2em" x="0" >keywords</tspan></text><g  id="v-63" color="#000000" transform="matrix(1,0,0,1,210,226.9)" display="none" style="fill: rgb(0, 0, 0);"><g ></g><g ></g><g ></g><g  transform="translate(5 0)"><svg xmlns="http://www.w3.org/2000/svg" width="20" height="20" fill="currentColor" viewBox="0 0 16 16"><path d="M6.354 5.5H4a3 3 0 0 0 0 6h3a3 3 0 0 0 2.83-4H9c-.086 0-.17.01-.25.031A2 2 0 0 1 7 10.5H4a2 2 0 1 1 0-4h1.535c.218-.376.495-.714.82-1z"></path><path d="M9 5.5a3 3 0 0 0-2.83 4h1.098A2 2 0 0 1 9 6.5h3a2 2 0 1 1 0 4h-1.535a4.02 4.02 0 0 1-.82 1H12a3 3 0 1 0 0-6H9z"></path></svg></g></g><image  id="v-64"></image></g></g><g   id="j_8"  transform="translate(1626,1269)" style=""><g  id="v-68" style="opacity: 1;"><rect  id="v-69" rx="1" ry="1" stroke="#7ab648" stroke-width="8" pointer-events="visiblePainted" fill="#c3f7c8" width="450" height="300" style="fill: rgb(195, 247, 200); stroke: rgb(122, 182, 72);"></rect><text  id="v-70" font-size="34" xml:space="preserve" y="0.8em" font-weight="bold" text-anchor="middle" pointer-events="visible" font-family="Open Sans" fill="#000000" transform="matrix(1,0,0,1,225,83.1)" style="fill: rgb(0, 0, 0);"><tspan dy="0" >Preview</tspan></text><text  id="v-71" font-size="17" xml:space="preserve" y="0.8em" text-anchor="middle" font-family="Open Sans" fill="#000000" transform="matrix(1,0,0,1,225,125.6)" style="fill: rgb(0, 0, 0);"><tspan dy="0" >[Component: ts]</tspan></text><text  id="v-72" font-size="24" xml:space="preserve" y="0.8em" text-anchor="middle" font-family="Open Sans" fill="#000000" transform="matrix(1,0,0,1,225,156.9)" style="fill: rgb(0, 0, 0);"><tspan dy="0" >Leverages Structurizr engine to</tspan><tspan dy="1.2em" x="0" >provide model views.</tspan></text><g  id="v-73" color="#000000" transform="matrix(1,0,0,1,210,226.9)" display="none" style="fill: rgb(0, 0, 0);"><g ></g><g ></g><g ></g><g  transform="translate(5 0)"><svg xmlns="http://www.w3.org/2000/svg" width="20" height="20" fill="currentColor" viewBox="0 0 16 16"><path d="M6.354 5.5H4a3 3 0 0 0 0 6h3a3 3 0 0 0 2.83-4H9c-.086 0-.17.01-.25.031A2 2 0 0 1 7 10.5H4a2 2 0 1 1 0-4h1.535c.218-.376.495-.714.82-1z"></path><path d="M9 5.5a3 3 0 0 0-2.83 4h1.098A2 2 0 0 1 9 6.5h3a2 2 0 1 1 0 4h-1.535a4.02 4.02 0 0 1-.82 1H12a3 3 0 1 0 0-6H9z"></path></svg></g></g><image  id="v-74"></image></g></g><g   id="j_9"  transform="translate(1626,569)" style=""><g  id="v-78" style="opacity: 1;"><rect  id="v-79" rx="1" ry="1" stroke="#7ab648" stroke-width="8" pointer-events="visiblePainted" fill="#c3f7c8" width="450" height="300" style="fill: rgb(195, 247, 200); stroke: rgb(122, 182, 72);"></rect><text  id="v-80" font-size="34" xml:space="preserve" y="0.8em" font-weight="bold" text-anchor="middle" pointer-events="visible" font-family="Open Sans" fill="#000000" transform="matrix(1,0,0,1,225,83.1)" style="fill: rgb(0, 0, 0);"><tspan dy="0" >Formatter</tspan></text><text  id="v-81" font-size="17" xml:space="preserve" y="0.8em" text-anchor="middle" font-family="Open Sans" fill="#000000" transform="matrix(1,0,0,1,225,125.6)" style="fill: rgb(0, 0, 0);"><tspan dy="0" >[Component: ts]</tspan></text><text  id="v-82" font-size="24" xml:space="preserve" y="0.8em" text-anchor="middle" font-family="Open Sans" fill="#000000" transform="matrix(1,0,0,1,225,156.9)" style="fill: rgb(0, 0, 0);"><tspan dy="0" >Provides formatting capability,</tspan><tspan dy="1.2em" x="0" >activated on-demand and on-save.</tspan></text><g  id="v-83" color="#000000" transform="matrix(1,0,0,1,210,226.9)" display="none" style="fill: rgb(0, 0, 0);"><g ></g><g ></g><g ></g><g  transform="translate(5 0)"><svg xmlns="http://www.w3.org/2000/svg" width="20" height="20" fill="currentColor" viewBox="0 0 16 16"><path d="M6.354 5.5H4a3 3 0 0 0 0 6h3a3 3 0 0 0 2.83-4H9c-.086 0-.17.01-.25.031A2 2 0 0 1 7 10.5H4a2 2 0 1 1 0-4h1.535c.218-.376.495-.714.82-1z"></path><path d="M9 5.5a3 3 0 0 0-2.83 4h1.098A2 2 0 0 1 9 6.5h3a2 2 0 1 1 0 4h-1.535a4.02 4.02 0 0 1-.82 1H12a3 3 0 1 0 0-6H9z"></path></svg></g></g><image  id="v-84"></image></g></g><g   id="j_10"  transform="translate(909,1269)" style=""><g  id="v-91" style="opacity: 1;"><rect  id="v-92" rx="1" ry="1" stroke="#7ab648" stroke-width="8" pointer-events="visiblePainted" fill="#c3f7c8" width="450" height="300" style="fill: rgb(195, 247, 200); stroke: rgb(122, 182, 72);"></rect><text  id="v-93" font-size="34" xml:space="preserve" y="0.8em" font-weight="bold" text-anchor="middle" pointer-events="visible" font-family="Open Sans" fill="#000000" transform="matrix(1,0,0,1,225,83.1)" style="fill: rgb(0, 0, 0);"><tspan dy="0" >Syntax highlighting</tspan></text><text  id="v-94" font-size="17" xml:space="preserve" y="0.8em" text-anchor="middle" font-family="Open Sans" fill="#000000" transform="matrix(1,0,0,1,225,125.6)" style="fill: rgb(0, 0, 0);"><tspan dy="0" >[Component: ts]</tspan></text><text  id="v-95" font-size="24" xml:space="preserve" y="0.8em" text-anchor="middle" font-family="Open Sans" fill="#000000" transform="matrix(1,0,0,1,225,156.9)" style="fill: rgb(0, 0, 0);"><tspan dy="0" >Provides comprehensive C4 DSL</tspan><tspan dy="1.2em" x="0" >syntax support.</tspan></text><g  id="v-96" color="#000000" transform="matrix(1,0,0,1,210,226.9)" display="none" style="fill: rgb(0, 0, 0);"><g ></g><g ></g><g ></g><g  transform="translate(5 0)"><svg xmlns="http://www.w3.org/2000/svg" width="20" height="20" fill="currentColor" viewBox="0 0 16 16"><path d="M6.354 5.5H4a3 3 0 0 0 0 6h3a3 3 0 0 0 2.83-4H9c-.086 0-.17.01-.25.031A2 2 0 0 1 7 10.5H4a2 2 0 1 1 0-4h1.535c.218-.376.495-.714.82-1z"></path><path d="M9 5.5a3 3 0 0 0-2.83 4h1.098A2 2 0 0 1 9 6.5h3a2 2 0 1 1 0 4h-1.535a4.02 4.02 0 0 1-.82 1H12a3 3 0 1 0 0-6H9z"></path></svg></g></g><image  id="v-97"></image></g></g><g   id="j_11"  transform="translate(221,744)" style=""><g  id="v-104" style="opacity: 1;"><rect  id="v-105" rx="1" ry="1" stroke="#7ab648" stroke-width="8" pointer-events="visiblePainted" fill="#c3f7c8" width="450" height="300" style="fill: rgb(195, 247, 200); stroke: rgb(122, 182, 72);"></rect><text  id="v-106" font-size="34" xml:space="preserve" y="0.8em" font-weight="bold" text-anchor="middle" pointer-events="visible" font-family="Open Sans" fill="#000000" transform="matrix(1,0,0,1,225,68.1)" style="fill: rgb(0, 0, 0);"><tspan dy="0" >Semantic highlighting</tspan></text><text  id="v-107" font-size="17" xml:space="preserve" y="0.8em" text-anchor="middle" font-family="Open Sans" fill="#000000" transform="matrix(1,0,0,1,225,110.6)" style="fill: rgb(0, 0, 0);"><tspan dy="0" >[Component: ts]</tspan></text><text  id="v-108" font-size="24" xml:space="preserve" y="0.8em" text-anchor="middle" font-family="Open Sans" fill="#000000" transform="matrix(1,0,0,1,225,141.9)" style="fill: rgb(0, 0, 0);"><tspan dy="0" >Parses the C4 DSL to gather</tspan><tspan dy="1.2em" x="0" >relevant information such as</tspan><tspan dy="1.2em" x="0" >instance assignment.</tspan></text><g  id="v-109" color="#000000" transform="matrix(1,0,0,1,210,241.9)" display="none" style="fill: rgb(0, 0, 0);"><g ></g><g ></g><g ></g><g  transform="translate(5 0)"><svg xmlns="http://www.w3.org/2000/svg" width="20" height="20" fill="currentColor" viewBox="0 0 16 16"><path d="M6.354 5.5H4a3 3 0 0 0 0 6h3a3 3 0 0 0 2.83-4H9c-.086 0-.17.01-.25.031A2 2 0 0 1 7 10.5H4a2 2 0 1 1 0-4h1.535c.218-.376.495-.714.82-1z"></path><path d="M9 5.5a3 3 0 0 0-2.83 4h1.098A2 2 0 0 1 9 6.5h3a2 2 0 1 1 0 4h-1.535a4.02 4.02 0 0 1-.82 1H12a3 3 0 1 0 0-6H9z"></path></svg></g></g><image  id="v-110"></image></g></g><g   id="j_12" ><path  stroke="#707070" d="M 1134 519 L 1134 744" id="v-123" stroke-width="2" stroke-dasharray="30 30" fill="none" style="opacity: 1;"></path><path  fill="black" stroke="black" d="M 0 0 0 0" transform="matrix(6.123233995736766e-17,1,-1,6.123233995736766e-17,1134,519)"></path><path  fill="#707070" stroke="#707070" d="M 20 0 L 0 10 L 20 20 z" id="v-125" transform="matrix(-1.8369701987210297e-16,-1,1,-1.8369701987210297e-16,1124,744)" style="opacity: 1;"></path><path  d="M 1134 519 L 1134 744" id="v-124" fill="none" style="cursor: default;"></path><g ><g id="v-114"  label-idx="0" cursor="move" transform="matrix(1,0,0,1,1134,631.5)" style="cursor: default; opacity: 1;"><rect joint-selector="rect" id="v-118" fill="#ffffff" rx="3" ry="3" pointer-events="none" width="114.25852966308594" height="32.87292671203613" transform="matrix(1,0,0,1,-56.3,-16.4)"></rect><text joint-selector="text" id="v-117" font-size="24px" xml:space="preserve" y="0.8em" fill="#707070" text-anchor="middle" pointer-events="none" font-family="Open Sans" font-weight="normal" transform="matrix(1,0,0,1,0,-9.3)"><tspan dy="0" >Leverages</tspan></text></g><g id="v-115"  label-idx="1" cursor="move" transform="matrix(1,0,0,1,1134,658.5)" style="cursor: default; opacity: 1;"><rect joint-selector="rect" id="v-120" fill="#ffffff" rx="3" ry="3" pointer-events="none" width="196.7942657470703" height="21.915282249450684" transform="matrix(1,0,0,1,-97.9,-10.9)"></rect><text joint-selector="text" id="v-119" font-size="17px" xml:space="preserve" y="0.8em" fill="#707070" text-anchor="middle" pointer-events="none" font-family="Open Sans" font-weight="normal" transform="matrix(1,0,0,1,0,-7)"><tspan dy="0" >[tokenization &amp; theming]</tspan></text></g><g id="v-116"  label-idx="2" cursor="move" transform="matrix(1,0,0,1,1124,667.75)" style="cursor: default; opacity: 1;"><rect joint-selector="rect" id="v-122" fill="#ffffff" rx="3" ry="3"  width="0" height="0" transform="matrix(1,0,0,1,0,0)" display="none"></rect><text joint-selector="text" id="v-121" fill="#000000" font-size="14" text-anchor="middle" pointer-events="none"></text></g></g><g  display="none"></g><g  id="v-127" display="none"><g  id="v-112"><path  end="source" d="M 26 0 L 0 13 L 26 26 z"></path></g><g  id="v-113"><path  end="target" d="M 26 0 L 0 13 L 26 26 z"></path></g></g><g  id="v-126" display="none"><g  id="v-111" transform="translate(1134, 559) "><g  event="remove"><circle r="11"></circle><path transform="scale(.8) translate(-16, -16)" d="M24.778,21.419 19.276,15.917 24.777,10.415 21.949,7.585 16.447,13.087 10.945,7.585 8.117,10.415 13.618,15.917 8.116,21.419 10.946,24.248 16.447,18.746 21.948,24.248z"></path><title>Remove link.</title></g><g  event="link:options"><circle r="11" transform="translate(25)"></circle><path fill="white" transform="scale(.55) translate(29, -16)" d="M31.229,17.736c0.064-0.571,0.104-1.148,0.104-1.736s-0.04-1.166-0.104-1.737l-4.377-1.557c-0.218-0.716-0.504-1.401-0.851-2.05l1.993-4.192c-0.725-0.91-1.549-1.734-2.458-2.459l-4.193,1.994c-0.647-0.347-1.334-0.632-2.049-0.849l-1.558-4.378C17.165,0.708,16.588,0.667,16,0.667s-1.166,0.041-1.737,0.105L12.707,5.15c-0.716,0.217-1.401,0.502-2.05,0.849L6.464,4.005C5.554,4.73,4.73,5.554,4.005,6.464l1.994,4.192c-0.347,0.648-0.632,1.334-0.849,2.05l-4.378,1.557C0.708,14.834,0.667,15.412,0.667,16s0.041,1.165,0.105,1.736l4.378,1.558c0.217,0.715,0.502,1.401,0.849,2.049l-1.994,4.193c0.725,0.909,1.549,1.733,2.459,2.458l4.192-1.993c0.648,0.347,1.334,0.633,2.05,0.851l1.557,4.377c0.571,0.064,1.148,0.104,1.737,0.104c0.588,0,1.165-0.04,1.736-0.104l1.558-4.377c0.715-0.218,1.399-0.504,2.049-0.851l4.193,1.993c0.909-0.725,1.733-1.549,2.458-2.458l-1.993-4.193c0.347-0.647,0.633-1.334,0.851-2.049L31.229,17.736zM16,20.871c-2.69,0-4.872-2.182-4.872-4.871c0-2.69,2.182-4.872,4.872-4.872c2.689,0,4.871,2.182,4.871,4.872C20.871,18.689,18.689,20.871,16,20.871z"></path><title>Link options.</title></g></g></g></g><g   id="j_13" ><path  stroke="#707070" d="M 671 894 L 909 894" id="v-140" stroke-width="2" stroke-dasharray="30 30" fill="none" style="opacity: 1;"></path><path  fill="black" stroke="black" d="M 0 0 0 0" transform="matrix(1,0,0,1,671,894)"></path><path  fill="#707070" stroke="#707070" d="M 20 0 L 0 10 L 20 20 z" id="v-142" transform="matrix(-1,1.2246467991473532e-16,-1.2246467991473532e-16,-1,909,904)" style="opacity: 1;"></path><path  d="M 671 894 L 909 894" id="v-141" fill="none" style="cursor: default;"></path><g ><g id="v-131"  label-idx="0" cursor="move" transform="matrix(1,0,0,1,790,894)" style="cursor: default; opacity: 1;"><rect joint-selector="rect" id="v-135" fill="#ffffff" rx="3" ry="3" pointer-events="none" width="114.25852966308594" height="32.87292671203613" transform="matrix(1,0,0,1,-56.3,-16.4)"></rect><text joint-selector="text" id="v-134" font-size="24px" xml:space="preserve" y="0.8em" fill="#707070" text-anchor="middle" pointer-events="none" font-family="Open Sans" font-weight="normal" transform="matrix(1,0,0,1,0,-9.3)"><tspan dy="0" >Leverages</tspan></text></g><g id="v-132"  label-idx="1" cursor="move" transform="matrix(1,0,0,1,790,921)" style="cursor: default; opacity: 1;"><rect joint-selector="rect" id="v-137" fill="#ffffff" rx="3" ry="3" pointer-events="none" width="77.78775024414062" height="21.915282249450684" transform="matrix(1,0,0,1,-38.4,-10.9)"></rect><text joint-selector="text" id="v-136" font-size="17px" xml:space="preserve" y="0.8em" fill="#707070" text-anchor="middle" pointer-events="none" font-family="Open Sans" font-weight="normal" transform="matrix(1,0,0,1,0,-7)"><tspan dy="0" >[theming]</tspan></text></g><g id="v-133"  label-idx="2" cursor="move" transform="matrix(1,0,0,1,780,930.25)" style="cursor: default; opacity: 1;"><rect joint-selector="rect" id="v-139" fill="#ffffff" rx="3" ry="3"  width="0" height="0" transform="matrix(1,0,0,1,0,0)" display="none"></rect><text joint-selector="text" id="v-138" fill="#000000" font-size="14" text-anchor="middle" pointer-events="none"></text></g></g><g  display="none"></g><g  id="v-144" display="none"><g  id="v-129"><path  end="source" d="M 26 0 L 0 13 L 26 26 z"></path></g><g  id="v-130"><path  end="target" d="M 26 0 L 0 13 L 26 26 z"></path></g></g><g  id="v-143" display="none"><g  id="v-128" transform="translate(711, 894) "><g  event="remove"><circle r="11"></circle><path transform="scale(.8) translate(-16, -16)" d="M24.778,21.419 19.276,15.917 24.777,10.415 21.949,7.585 16.447,13.087 10.945,7.585 8.117,10.415 13.618,15.917 8.116,21.419 10.946,24.248 16.447,18.746 21.948,24.248z"></path><title>Remove link.</title></g><g  event="link:options"><circle r="11" transform="translate(25)"></circle><path fill="white" transform="scale(.55) translate(29, -16)" d="M31.229,17.736c0.064-0.571,0.104-1.148,0.104-1.736s-0.04-1.166-0.104-1.737l-4.377-1.557c-0.218-0.716-0.504-1.401-0.851-2.05l1.993-4.192c-0.725-0.91-1.549-1.734-2.458-2.459l-4.193,1.994c-0.647-0.347-1.334-0.632-2.049-0.849l-1.558-4.378C17.165,0.708,16.588,0.667,16,0.667s-1.166,0.041-1.737,0.105L12.707,5.15c-0.716,0.217-1.401,0.502-2.05,0.849L6.464,4.005C5.554,4.73,4.73,5.554,4.005,6.464l1.994,4.192c-0.347,0.648-0.632,1.334-0.849,2.05l-4.378,1.557C0.708,14.834,0.667,15.412,0.667,16s0.041,1.165,0.105,1.736l4.378,1.558c0.217,0.715,0.502,1.401,0.849,2.049l-1.994,4.193c0.725,0.909,1.549,1.733,2.459,2.458l4.192-1.993c0.648,0.347,1.334,0.633,2.05,0.851l1.557,4.377c0.571,0.064,1.148,0.104,1.737,0.104c0.588,0,1.165-0.04,1.736-0.104l1.558-4.377c0.715-0.218,1.399-0.504,2.049-0.851l4.193,1.993c0.909-0.725,1.733-1.549,2.458-2.458l-1.993-4.193c0.347-0.647,0.633-1.334,0.851-2.049L31.229,17.736zM16,20.871c-2.69,0-4.872-2.182-4.872-4.871c0-2.69,2.182-4.872,4.872-4.872c2.689,0,4.871,2.182,4.871,4.872C20.871,18.689,18.689,20.871,16,20.871z"></path><title>Link options.</title></g></g></g></g><g   id="j_14" ><path  stroke="#707070" d="M 1134 1269 L 1134 1044" id="v-157" stroke-width="2" stroke-dasharray="30 30" fill="none" style="opacity: 1;"></path><path  fill="black" stroke="black" d="M 0 0 0 0" transform="matrix(-1.8369701987210297e-16,-1,1,-1.8369701987210297e-16,1134,1269)"></path><path  fill="#707070" stroke="#707070" d="M 20 0 L 0 10 L 20 20 z" id="v-159" transform="matrix(6.123233995736766e-17,1,-1,6.123233995736766e-17,1144,1044)" style="opacity: 1;"></path><path  d="M 1134 1269 L 1134 1044" id="v-158" fill="none" style="cursor: default;"></path><g ><g id="v-148"  label-idx="0" cursor="move" transform="matrix(1,0,0,1,1134,1156.5)" style="cursor: default; opacity: 1;"><rect joint-selector="rect" id="v-152" fill="#ffffff" rx="3" ry="3" pointer-events="none" width="114.25852966308594" height="32.87292671203613" transform="matrix(1,0,0,1,-56.3,-16.4)"></rect><text joint-selector="text" id="v-151" font-size="24px" xml:space="preserve" y="0.8em" fill="#707070" text-anchor="middle" pointer-events="none" font-family="Open Sans" font-weight="normal" transform="matrix(1,0,0,1,0,-9.3)"><tspan dy="0" >Leverages</tspan></text></g><g id="v-149"  label-idx="1" cursor="move" transform="matrix(1,0,0,1,1134,1183.5)" style="cursor: default; opacity: 1;"><rect joint-selector="rect" id="v-154" fill="#ffffff" rx="3" ry="3" pointer-events="none" width="196.7942657470703" height="21.915282249450684" transform="matrix(1,0,0,1,-97.9,-10.9)"></rect><text joint-selector="text" id="v-153" font-size="17px" xml:space="preserve" y="0.8em" fill="#707070" text-anchor="middle" pointer-events="none" font-family="Open Sans" font-weight="normal" transform="matrix(1,0,0,1,0,-7)"><tspan dy="0" >[tokenization &amp; theming]</tspan></text></g><g id="v-150"  label-idx="2" cursor="move" transform="matrix(1,0,0,1,1124,1192.75)" style="cursor: default; opacity: 1;"><rect joint-selector="rect" id="v-156" fill="#ffffff" rx="3" ry="3"  width="0" height="0" transform="matrix(1,0,0,1,0,0)" display="none"></rect><text joint-selector="text" id="v-155" fill="#000000" font-size="14" text-anchor="middle" pointer-events="none"></text></g></g><g  display="none"></g><g  id="v-161" display="none"><g  id="v-146"><path  end="source" d="M 26 0 L 0 13 L 26 26 z"></path></g><g  id="v-147"><path  end="target" d="M 26 0 L 0 13 L 26 26 z"></path></g></g><g  id="v-160" display="none"><g  id="v-145" transform="translate(1134, 1228.9999999999998) "><g  event="remove"><circle r="11"></circle><path transform="scale(.8) translate(-16, -16)" d="M24.778,21.419 19.276,15.917 24.777,10.415 21.949,7.585 16.447,13.087 10.945,7.585 8.117,10.415 13.618,15.917 8.116,21.419 10.946,24.248 16.447,18.746 21.948,24.248z"></path><title>Remove link.</title></g><g  event="link:options"><circle r="11" transform="translate(25)"></circle><path fill="white" transform="scale(.55) translate(29, -16)" d="M31.229,17.736c0.064-0.571,0.104-1.148,0.104-1.736s-0.04-1.166-0.104-1.737l-4.377-1.557c-0.218-0.716-0.504-1.401-0.851-2.05l1.993-4.192c-0.725-0.91-1.549-1.734-2.458-2.459l-4.193,1.994c-0.647-0.347-1.334-0.632-2.049-0.849l-1.558-4.378C17.165,0.708,16.588,0.667,16,0.667s-1.166,0.041-1.737,0.105L12.707,5.15c-0.716,0.217-1.401,0.502-2.05,0.849L6.464,4.005C5.554,4.73,4.73,5.554,4.005,6.464l1.994,4.192c-0.347,0.648-0.632,1.334-0.849,2.05l-4.378,1.557C0.708,14.834,0.667,15.412,0.667,16s0.041,1.165,0.105,1.736l4.378,1.558c0.217,0.715,0.502,1.401,0.849,2.049l-1.994,4.193c0.725,0.909,1.549,1.733,2.459,2.458l4.192-1.993c0.648,0.347,1.334,0.633,2.05,0.851l1.557,4.377c0.571,0.064,1.148,0.104,1.737,0.104c0.588,0,1.165-0.04,1.736-0.104l1.558-4.377c0.715-0.218,1.399-0.504,2.049-0.851l4.193,1.993c0.909-0.725,1.733-1.549,2.458-2.458l-1.993-4.193c0.347-0.647,0.633-1.334,0.851-2.049L31.229,17.736zM16,20.871c-2.69,0-4.872-2.182-4.872-4.871c0-2.69,2.182-4.872,4.872-4.872c2.689,0,4.871,2.182,4.871,4.872C20.871,18.689,18.689,20.871,16,20.871z"></path><title>Link options.</title></g></g></g></g><g   id="j_15" ><path  stroke="#707070" d="M 2076 1419 L 2325 1419" id="v-174" stroke-width="2" stroke-dasharray="30 30" fill="none" style="opacity: 1;"></path><path  fill="black" stroke="black" d="M 0 0 0 0" transform="matrix(1,0,0,1,2076,1419)"></path><path  fill="#707070" stroke="#707070" d="M 20 0 L 0 10 L 20 20 z" id="v-176" transform="matrix(-1,1.2246467991473532e-16,-1.2246467991473532e-16,-1,2325,1429)" style="opacity: 1;"></path><path  d="M 2076 1419 L 2325 1419" id="v-175" fill="none" style="cursor: default;"></path><g ><g id="v-165"  label-idx="0" cursor="move" transform="matrix(1,0,0,1,2200.5,1419)" style="cursor: default; opacity: 1;"><rect joint-selector="rect" id="v-169" fill="#ffffff" rx="3" ry="3" pointer-events="none" width="59.78435516357422" height="32.87292671203613" transform="matrix(1,0,0,1,-29,-16.4)"></rect><text joint-selector="text" id="v-168" font-size="24px" xml:space="preserve" y="0.8em" fill="#707070" text-anchor="middle" pointer-events="none" font-family="Open Sans" font-weight="normal" transform="matrix(1,0,0,1,0,-9.3)"><tspan dy="0" >Fuels</tspan></text></g><g id="v-166"  label-idx="1" cursor="move" transform="matrix(1,0,0,1,2200.5,1446)" style="cursor: default; opacity: 1;"><rect joint-selector="rect" id="v-171" fill="#ffffff" rx="3" ry="3" pointer-events="none" width="169.43521118164062" height="21.915282249450684" transform="matrix(1,0,0,1,-84.2,-10.9)"></rect><text joint-selector="text" id="v-170" font-size="17px" xml:space="preserve" y="0.8em" fill="#707070" text-anchor="middle" pointer-events="none" font-family="Open Sans" font-weight="normal" transform="matrix(1,0,0,1,0,-7)"><tspan dy="0" >[workspace &amp; theme]</tspan></text></g><g id="v-167"  label-idx="2" cursor="move" transform="matrix(1,0,0,1,2190.5,1455.25)" style="cursor: default; opacity: 1;"><rect joint-selector="rect" id="v-173" fill="#ffffff" rx="3" ry="3"  width="0" height="0" transform="matrix(1,0,0,1,0,0)" display="none"></rect><text joint-selector="text" id="v-172" fill="#000000" font-size="14" text-anchor="middle" pointer-events="none"></text></g></g><g  display="none"></g><g  id="v-178" display="none"><g  id="v-163"><path  end="source" d="M 26 0 L 0 13 L 26 26 z"></path></g><g  id="v-164"><path  end="target" d="M 26 0 L 0 13 L 26 26 z"></path></g></g><g  id="v-177" display="none"><g  id="v-162" transform="translate(2116, 1419) "><g  event="remove"><circle r="11"></circle><path transform="scale(.8) translate(-16, -16)" d="M24.778,21.419 19.276,15.917 24.777,10.415 21.949,7.585 16.447,13.087 10.945,7.585 8.117,10.415 13.618,15.917 8.116,21.419 10.946,24.248 16.447,18.746 21.948,24.248z"></path><title>Remove link.</title></g><g  event="link:options"><circle r="11" transform="translate(25)"></circle><path fill="white" transform="scale(.55) translate(29, -16)" d="M31.229,17.736c0.064-0.571,0.104-1.148,0.104-1.736s-0.04-1.166-0.104-1.737l-4.377-1.557c-0.218-0.716-0.504-1.401-0.851-2.05l1.993-4.192c-0.725-0.91-1.549-1.734-2.458-2.459l-4.193,1.994c-0.647-0.347-1.334-0.632-2.049-0.849l-1.558-4.378C17.165,0.708,16.588,0.667,16,0.667s-1.166,0.041-1.737,0.105L12.707,5.15c-0.716,0.217-1.401,0.502-2.05,0.849L6.464,4.005C5.554,4.73,4.73,5.554,4.005,6.464l1.994,4.192c-0.347,0.648-0.632,1.334-0.849,2.05l-4.378,1.557C0.708,14.834,0.667,15.412,0.667,16s0.041,1.165,0.105,1.736l4.378,1.558c0.217,0.715,0.502,1.401,0.849,2.049l-1.994,4.193c0.725,0.909,1.549,1.733,2.459,2.458l4.192-1.993c0.648,0.347,1.334,0.633,2.05,0.851l1.557,4.377c0.571,0.064,1.148,0.104,1.737,0.104c0.588,0,1.165-0.04,1.736-0.104l1.558-4.377c0.715-0.218,1.399-0.504,2.049-0.851l4.193,1.993c0.909-0.725,1.733-1.549,2.458-2.458l-1.993-4.193c0.347-0.647,0.633-1.334,0.851-2.049L31.229,17.736zM16,20.871c-2.69,0-4.872-2.182-4.872-4.871c0-2.69,2.182-4.872,4.872-4.872c2.689,0,4.871,2.182,4.871,4.872C20.871,18.689,18.689,20.871,16,20.871z"></path><title>Link options.</title></g></g></g></g></g><g ></g><g ></g><g ></g></g></svg>