<?xml version="1.0" encoding="utf-8"?>
<svg xmlns="http://www.w3.org/2000/svg"
  height="128"
  width="128"
  viewBox="0 0 128 128">
  <g>
    <path id="path1"
      transform="rotate(0,64,64) translate(4,4.66010138627547) scale(3.74999463791794,3.74999463791794)  "
      fill="#FFFFFF"
      d="M15.762688,21.679073C15.762688,21.679073 20.258601,27.374096 21.656592,30.671101 21.656592,30.671101 16.761637,32.869104 10.067757,30.671101 10.067757,30.671101 12.066693,26.475075 14.263685,23.678072L15.662653,25.676062C15.662653,25.676062 13.664694,28.173079 13.165677,29.372086 13.165677,29.372086 15.562679,29.972094 18.46065,29.372086 18.46065,29.372086 14.763678,23.378082 14.263685,23.278076z M19.758607,17.783066L21.357585,19.282064 17.560637,23.17807 16.162646,21.480068z M8.4697559,17.68306L9.9687593,19.182056C9.9687593,19.282064 4.5738117,23.777071 4.5738117,23.777071 5.6727965,25.576086 8.0697372,27.174082 8.0697372,27.174082 9.5687406,24.976078 14.164687,19.881064 14.164687,19.881064L15.562679,21.480068C13.264675,23.678072 8.7697398,30.171101 8.7697398,30.171101 3.8738091,27.674084 1.7758757,23.17807 1.7758758,23.17807 1.9758241,23.078064 8.4697559,17.68306 8.4697559,17.68306z M21.457558,16.285046C23.655528,18.58205 30.148482,23.078064 30.148482,23.078064 27.651507,27.974072 23.155534,30.0721 23.155534,30.0721 23.155534,29.872088 17.760648,23.378082 17.760648,23.378082L19.259591,21.879055C19.359626,21.879055 23.755563,27.374096 23.755563,27.374096 25.553511,26.275093 27.351523,23.777071 27.351523,23.777071 25.153554,22.279081 20.058591,17.583054 20.058591,17.583054z M10.267706,16.085064L13.964678,19.681051 12.465674,21.280054 8.4697559,17.483048z M13.964678,15.985058L17.460664,19.581076 15.962637,21.280054 12.465674,17.483048z M19.758607,14.386055L21.357585,15.885052 17.660613,19.382071 16.262683,17.883043z M14.263685,12.388033L15.762688,13.987037 12.16569,17.483048 10.567751,15.985058z M19.359626,10.490048L23.155534,14.187049 21.557593,15.585063 17.860621,12.089051z M15.962637,10.390042L19.459599,14.087043 17.860621,15.485057 14.463694,11.989045z M30.94846,9.8910475C30.94846,9.8910475 33.246403,15.086039 31.048434,21.779079 31.048434,21.779079 26.752532,19.681051 23.954535,17.483048L25.952494,16.085064C25.952494,16.085064 28.550481,17.983049 29.749501,18.483049 29.749501,18.483049 30.348492,16.085064 29.749501,13.188053 29.749501,13.188053 23.755563,16.884047 23.655528,17.384049L22.05655,15.885052C21.856601,15.885052,27.55147,11.389037,30.94846,9.8910475z M0.97687487,9.7910414C0.97687505,9.7910414,5.2727773,11.889039,8.0697372,14.087043L6.0717776,15.485057C6.0717776,15.485057 3.4748275,13.587041 2.2758689,13.088047 2.2758689,13.088047 1.6758404,15.485057 2.2758689,18.383043 2.2758689,18.383043 8.2697465,14.686043 8.3697822,14.187049L9.9687593,15.685039C9.9687593,15.685039 4.2738282,20.181053 0.97687487,21.580074 0.97687505,21.679073 -1.2210937,16.484053 0.97687487,9.7910414z M14.263685,8.5920334L15.662653,10.190029 12.066693,13.987037 10.567751,12.488039C10.667724,12.388033,14.263685,8.5920334,14.263685,8.5920334z M8.6697652,1.6980024C8.6697652,1.8980153,14.064652,8.3920203,14.064652,8.3920203L12.56571,9.8910475C12.465674,9.8910475 8.0697372,4.3960076 8.0697372,4.3960076 6.3717615,5.595016 4.5738117,7.9920254 4.5738117,7.9920254 6.7717807,9.4910222 11.866684,14.187049 11.866684,14.187049L10.367741,15.585063C8.1697719,13.287053 1.6758404,8.7920456 1.6758405,8.7920456 4.1737931,3.7960306 8.6697652,1.6980026 8.6697652,1.6980024z M23.05556,1.5980267C27.951491,4.0960193 30.049485,8.5920334 30.049485,8.5920334 29.849475,8.5920334 23.355544,13.987037 23.355544,13.987037L21.856601,12.488039C21.856601,12.388033 27.251488,7.8930259 27.251488,7.8930259 26.152503,6.0940409 23.755563,4.4960142 23.755563,4.4960142 22.25656,6.6940179 17.660613,11.789032 17.660613,11.789032L16.262683,10.190029C18.559647,8.0920315,23.05556,1.5980267,23.05556,1.5980267z M15.862663,0C17.560637,7.9689926E-08 19.558596,0.2000128 21.756566,0.99902634 21.756566,0.99902617 19.758607,5.1950212 17.560637,7.9920254L16.162646,5.9940343C16.162646,5.9940343 18.160605,3.4970186 18.659623,2.2980104 18.659623,2.2980102 16.262683,1.6980026 13.364711,2.2980104 13.364711,2.2980102 17.061621,8.2920447 17.560637,8.3920203L16.062672,9.9910241C16.062672,9.9910241 11.5667,4.296032 10.167731,0.99902634 10.167731,0.99902617 12.3657,7.9689926E-08 15.862663,0z" />
  </g>
</svg>